Simulation
nRows=28
nColumns=15
endheader
time  TH_x TH_y TH_z SC_y  SC_z  SC_x  AC_y  AC_z  AC_x  GH_y  GH_z  GH_yy  EL_x  PS_y
2.8725  0.000000  0.000000  0.000000  -39.84524959240825  -2.3954857433838814  -14.1595111500781  45.84519231245424  10.234486864760783  7.501104784964195  5.900832457750812  14.773555034428053  2.119883283195104  14.026991835644779  120.000000
2.92995  0.000000  0.000000  0.000000  -39.77624993794533  -2.539920477170592  -13.965682857270277  46.06887654140918  10.425003238094181  7.417226150180801  8.11432012710686  13.38731180214757  2.7032210954213487  14.39013376535173  120.000000
2.9874  0.000000  0.000000  0.000000  -39.828563047756305  -2.6477636445853885  -13.737412409223417  46.286305210428786  10.633799416207994  7.3153152504746615  10.993393518433358  12.218961914234974  2.19721738419066  14.838560515416617  120.000000
3.0448500000000003  0.000000  0.000000  0.000000  -39.97201830499189  -2.7134119315496714  -13.481139199156528  46.460403408858014  10.843858436967107  7.180194629646196  14.487536494849628  11.246388150564583  0.6199737029179984  15.327528887004508  120.000000
3.1023  0.000000  0.000000  0.000000  -40.171843053907956  -2.731169754985665  -13.202992594333194  46.57319633662575  11.048509358058832  7.011722589856525  18.435185321230907  10.455890219471549  -1.845284457686345  15.814931263683196  120.000000
3.15975  0.000000  0.000000  0.000000  -40.39747929236943  -2.7001664356255524  -12.91405077837481  46.623620363245706  11.252385114862593  6.823372515419498  22.591442824647363  9.837878652004449  -4.89554173060663  16.271620499596054  120.000000
3.2172  0.000000  0.000000  0.000000  -40.626739961690895  -2.63085191042823  -12.635327074452148  46.62009067156687  11.46669582069305  6.635983661026761  26.648150402809197  9.378607906713837  -8.14396756653999  16.6862224505766  120.000000
3.2746500000000003  0.000000  0.000000  0.000000  -40.844450420689164  -2.5416777549937195  -12.388048298984112  46.577593705667596  11.695726151401733  6.464887677118937  30.295375654205532  9.055233326562565  -11.194939421979932  17.063532432586133  120.000000
3.3321  0.000000  0.000000  0.000000  -41.037676555042346  -2.45396000817359  -12.188391749432926  46.51397371825944  11.935607785937323  6.319479741706399  33.306340174536366  8.838471407116579  -13.74152065833481  17.417321813514214  120.000000
3.38955  0.000000  0.000000  0.000000  -41.19401337953788  -2.3876617483047116  -12.046359233924262  46.449008990909704  12.175455013792904  6.208134570579432  35.61550365706745  8.701372627266151  -15.654588496951456  17.762593367595137  120.000000
3.447  0.000000  0.000000  0.000000  -41.303205211069404  -2.3557630690033133  -11.96667047572332  46.40263111812509  12.400305047936731  6.13884120031993  37.32710333569027  8.626909388567313  -16.997894503378273  18.111728717413428  120.000000
3.5044500000000003  0.000000  0.000000  0.000000  -41.36237032657959  -2.3631633930827487  -11.949992142908158  46.385826548179224  12.599123800520857  6.115124888340224  38.59994566946756  8.60772974159733  -17.913593259591725  18.470826103769674  120.000000
3.5619  0.000000  0.000000  0.000000  -41.3764685509129  -2.4060566117546154  -11.994823019692769  46.39686044603179  12.769313873873074  6.134808128280031  39.54384368188572  8.640625856316461  -18.51192657573529  18.83896778446981  120.000000
3.61935  0.000000  0.000000  0.000000  -41.35464953915409  -2.473590530057928  -12.09864277193003  46.42574052738248  12.913998200439282  6.193206862887011  40.205112811398415  8.723026084956903  -18.846315070355896  19.212152518304737  120.000000
3.6768  0.000000  0.000000  0.000000  -41.30552311986521  -2.552528590789966  -12.258908138257903  46.459522467407965  13.037047224754623  6.286253049029798  40.59683306778147  8.85146912841449  -18.935930152807046  19.58681496678985  120.000000
3.7342500000000003  0.000000  0.000000  0.000000  -41.234838887606365  -2.6311461824381084  -12.473599643185468  46.48607274796795  13.139358471581694  6.412699546910613  40.728769542670086  9.021823317902525  -18.791881343401297  19.961577030566986  120.000000
3.7917  0.000000  0.000000  0.000000  -41.14520221024092  -2.700508667097976  -12.74118123316947  46.49676447218191  13.21833350673047  6.574050611550651  40.616701690931365  9.23088788568959  -18.42600419459763  20.337016269156546  120.000000
3.84915  0.000000  0.000000  0.000000  -41.037422330483494  -2.75377210100332  -13.059732040756675  46.48734920493318  13.269825751298617  6.773430891351987  40.27080816259397  9.477955567114703  -17.839587068990323  20.714267457169232  120.000000
3.9066  0.000000  0.000000  0.000000  -40.9117805953747  -2.78488137660345  -13.425582857549314  46.45755888058203  13.290949546559633  7.014401061786786  39.678221665774906  9.765684480619175  -17.00636936446301  21.093312539125098  120.000000
3.9640500000000003  0.000000  0.000000  0.000000  -40.76889502456447  -2.7873002278577097  -13.832451258451266  46.41077748251135  13.281993520187232  7.299885707347897  38.80076770594357  10.100875017601792  -15.871558252502142  21.472060549491818  120.000000
4.0215  0.000000  0.000000  0.000000  -40.611122312044145  -2.75390190306936  -14.27157142511837  46.353465044951314  13.246112031574107  7.631903574153173  37.59704872299416  10.495270751572832  -14.37789205777559  21.846135045981047  120.000000
4.07895  0.000000  0.000000  0.000000  -40.445412134661794  -2.6778237598926533  -14.732755633272248  46.29506315136902  13.186958325685703  8.012107528379978  36.06595629142513  10.966706110156787  -12.51580801986847  22.20830292098833  120.000000
4.1364  0.000000  0.000000  0.000000  -40.28730057258893  -2.553660056876866  -15.205460269938047  46.24865827554602  13.106151955065704  8.4425056008694  34.2907714048828  11.539977473120643  -10.37567904561351  22.54661019713177  120.000000
4.19385  0.000000  0.000000  0.000000  -40.16376812713514  -2.3782678596853213  -15.678379572458295  46.2322355653827  13.002350449516353  8.92623176259806  32.45730263441227  12.245267619553475  -8.171285370898675  22.8431877552838  120.000000
4.2513000000000005  0.000000  0.000000  0.000000  -40.11284534278602  -2.1503545395650527  -16.136844482157798  46.2696281573941  12.873638030848952  9.46760312178404  30.822245643565903  13.113774688458347  -6.207609065058415  23.076780043265543  120.000000
4.30875  0.000000  0.000000  0.000000  -40.17943977582441  -1.866282479542864  -16.558459725412913  46.390422754243566  12.724269557256465  10.069351256315871  29.63958447257785  14.173960824710464  -4.802220544717893  23.23090628894583  120.000000
4.3662  0.000000  0.000000  0.000000  -40.40834042653261  -1.5160010300848465  -16.90776720200966  46.62595927276974  12.572743808881931  10.72878044915514  29.078690153307598  15.44956574302168  -4.1977416169100445  23.306196641067054  120.000000
4.42365  0.000000  0.000000  0.000000  -40.834589050922375  -1.0808949481906323  -17.131760500415055  47.002838165115335  12.456850442654552  11.434643013051106  29.176872241875166  16.956714545089973  -4.508982960195211  23.330852964794154  120.000000
